<svg xmlns="http://www.w3.org/2000/svg" viewBox="0 0 999.91 935.21"><defs><style>.cls-1{fill:#231815;}</style></defs><g id="レイヤー_2" data-name="レイヤー 2"><g id="レイヤー_1-2" data-name="レイヤー 1"><rect class="cls-1" y="921.02" width="180.53" height="6.99"/><rect class="cls-1" x="800.96" y="921.02" width="198.95" height="6.99"/><rect class="cls-1" y="726.39" width="327.94" height="6.99"/><rect class="cls-1" x="653.54" y="726.39" width="346.37" height="6.99"/><path class="cls-1" d="M490.83,93.77c-9.63-6.64-30.52-18.85-48.63-14.58-9.35,2.2-16.69,8.54-21.22,18.31-5.19,11.2-7.26,29.86,12.41,55.1a143.57,143.57,0,0,0,13.78,15.13c-4.33,1-8.25,2.08-11.79,3.2C425,164.77,408.13,151,401.76,136.44c-3.21-7.34-3.11-13.44.29-18.65a16.16,16.16,0,0,1,8-6.53,45.86,45.86,0,0,1,4.2-16.89l.27-.55c-9.71.56-19.33,4.57-26.16,15-6.46,9.9-7,21.7-1.58,34.12,6,13.68,18.56,26.54,30.49,35.44,0,0,0,0,0,0s0,0,0,0a71.45,71.45,0,0,0-9.4,6.25s2.09-1.92,0,0l16.78,18.58a.23.23,0,0,1,.06.18.25.25,0,0,1-.08.17c.17-.15,17.95-14.5,66.21-15.67,48.26,1.17,66,15.52,66.22,15.67a.32.32,0,0,1-.09-.17.24.24,0,0,1,.07-.18l16.77-18.58c-2.09-1.92,0,0,0,0a71.45,71.45,0,0,0-9.4-6.25v0s0,0,0,0c11.93-8.9,24.52-21.76,30.49-35.44,5.43-12.42,4.88-24.22-1.58-34.12-6.83-10.47-16.45-14.48-26.15-15,.08.19.18.36.27.55a45.86,45.86,0,0,1,4.19,16.89,16.22,16.22,0,0,1,8,6.53c3.4,5.21,3.49,11.31.29,18.65-6.38,14.6-23.25,28.33-33.62,34.49-3.55-1.12-7.47-2.21-11.8-3.2a141.43,141.43,0,0,0,13.78-15.13c19.67-25.24,17.61-43.9,12.41-55.1-4.53-9.77-11.87-16.11-21.21-18.31C521.36,74.92,500.47,87.13,490.83,93.77Zm-.29,68.93c-8.26.19-15.78.74-22.64,1.53A144,144,0,0,1,449,145.83c-9.53-11.29-19.54-27.63-13.13-41.45,3.2-6.92,7.31-8.61,10.12-9.27C459,92,479.1,105,485.73,110.3l5.1,4.06h0l5.09-4.06c6.64-5.27,26.74-18.28,39.8-15.19,2.81.66,6.91,2.35,10.12,9.27,6.41,13.82-3.6,30.16-13.13,41.45a144,144,0,0,1-19,18.4c-6.86-.79-14.37-1.34-22.64-1.53Z"/><path class="cls-1" d="M490.83,121,461.9,138.8l7,17.83c5.31-.56,11-1,17.08-1.21l-3.85-9.84,8.72-5.36,8.73,5.36-3.86,9.84c6.08.23,11.77.65,17.09,1.21l7-17.83Z"/><path class="cls-1" d="M605.06,239.59a408.49,408.49,0,0,1,67.4,5.88c-9.85,46.13-4.18,86.45,3.48,140.89,2.41,17.16,4.9,34.9,7.25,55,10,85.5-80.9,139.69-124.57,165.74-31.89,19-53.83,36.52-67.79,54.21-13.95-17.69-35.89-35.19-67.79-54.21-43.67-26.05-134.54-80.24-124.56-165.74,2.34-20.1,4.84-37.84,7.25-55,7.66-54.44,13.32-94.76,3.47-140.89a408.6,408.6,0,0,1,67.4-5.88c46.56,0,83.21,8.92,108.94,26.52l5.29,3.63,5.3-3.63c25.72-17.6,62.37-26.52,108.93-26.52ZM327.94,431.89h161v189.8L504,610a397.22,397.22,0,0,1,40.2-27.05c26.16-15.6,56-34.3,79.18-58.76,15.72-16.6,36.13-42.9,31.85-79.55-.27-2.33-.55-4.62-.82-6.89l-1-8.24H492.78V305.16l-4.08-2.79-19.05-13c-20.67-14.14-52.84-21.61-93-21.61-8.35,0-17.06.33-25.88,1l-9.24.68.57,9.25c2.21,35.82-2.73,70.95-8.46,111.64-1.37,9.79-2.84,20.25-4.25,31l-1.4,10.6ZM605.06,230.21c-37.78,0-81.75,5.94-114.23,28.16h0c-32.47-22.22-76.45-28.16-114.23-28.16a402.44,402.44,0,0,0-78.77,7.88c16.11,62.71,1.74,113-8.67,202.18s79,145,129.08,174.88c42.82,25.54,62.64,45.78,72.59,62.67,10-16.89,29.77-37.13,72.59-62.67,50.05-29.84,139.49-85.69,129.08-174.88s-24.77-139.47-8.67-202.18a402.57,402.57,0,0,0-78.77-7.88ZM338.64,422.51c1.41-10.71,2.84-20.94,4.24-30.93,5.82-41.36,10.8-76.75,8.53-113.52,7.83-.58,16.33-.95,25.19-.95,38.31,0,68.66,6.9,87.75,20l19,13v112.4Zm159.63,180V438.87H645.11c.27,2.25.54,4.52.81,6.83,3.82,32.75-14.91,56.79-29.34,72-22.34,23.59-51.55,41.87-77.18,57.16a409.5,409.5,0,0,0-41.13,27.68Z"/><path class="cls-1" d="M740.92,503.26c35.65-31.6,22.13-55.16,22.13-55.16,28.74,1.68,23.89,21.49,23.89,21.49,22.25-27.36,3.95-47.67,3.95-47.67,23.39,5.75,28.23,17.81,29.7,28.77,6.69,50-105.09,90.47-157.4,104.18C696.26,531.25,737.78,506.05,740.92,503.26Z"/><path class="cls-1" d="M692.1,600.22l34.23-.71s-19.67,52.28-54.55,32.57c0,0,13.17,19.49-15.32,32.21,0,0,3.94,17.64-24.71,14.75-22.92-2.32-52.54,5.55-80.78,17.25C551,696.29,599.91,601.51,692.1,600.22Zm-14.89,19.2s5.36-.62,7.6-4.54c0,0-32.34-3.32-93.48,49.23C591.33,664.11,631.5,631.89,677.21,619.42Z"/><path class="cls-1" d="M800,562.88c-15,2.86-64.54-13.29-140.3,15.48,25.31-17.05,67.56-32.36,114.06-29,15.42,1.11,44.24-.49,60-9,0,0-.75,42.51-38.7,49.21l-29.72-7.6c-16.78-5.48-42.68-5.45-62.45-1.67-31.51,6-65.79,19.45-76.1,26.36C695.47,553.06,762.39,573.18,800,562.88Z"/><path class="cls-1" d="M819.42,210.05A37.47,37.47,0,0,1,810.69,161a118.59,118.59,0,0,1,15.62-19.91C840.61,159.1,844,184,844,184c12-17.05,26.18-10.44,26.18-10.44-14.64,12.8-17.61,38.14,10,87.49,18,32.19,15.18,53.73,15.18,53.73-5.8-27.94-26.39-55.46-40.24-71.44-28.86-36.6-29.21-66.94-29.21-66.94-3.29,13.53,2,31.44,8,45.68C828.91,217.72,824,213.69,819.42,210.05Z"/><path class="cls-1" d="M826.22,387c-45.81-12.58-64.87,23.46-64.87,23.46-14.22-9.68-13.3-28.8-8.13-32.09C734,382.37,719,356.86,719,356.86c8.42-6.38,14.54-8.89,23.55-10.06C718.94,344,708.75,328,704.59,311.69h0c-4.74-18.52-3.73-28.24-1.68-37.35C706.15,260,714.37,257.81,719,261.1c3.28,2.31,2.12,8.93-2.66,11.71-5.22,3-5.89,7.66-6.25,12.5-1.29,17.49,16.42,34.6,30.38,37.19,0,0-22.51-14.57-20.9-36.26,4,5.49,12.77,8.51,24.66,7.12,32.75-3.82,48.59,12.86,48.59,12.86-12.3-11.39-11.45-31.83-11.45-31.83,74.28,0,109.23,24.93,117,126.27-8.3-35.26-22.42-65.92-57.94-95.22,0,0,48.28,51.53,53.3,116.33a102,102,0,0,1-6.46,14.32c.25-60.37-44.13-116-88.27-125.94,0,0,45.49,18.12,67.4,72.62,27.14,67.49-.61,106.22-66,138l-4.19-3.21C886.54,472,868.43,398.56,826.22,387Z"/><path class="cls-1" d="M674.53,8.37S723.6-15,744.83,16.46c2.74,4.07,1.81,12.88-9.38,12.14,1.44-9.5-27.6-31.46-67,2.15,0,0,20.62-15.78,43.08-9.56C696,30.51,697.08,64.54,676.69,80c-22.39,16.94-37.05,65.48,2,94.25,0,0-38.79-59.78,26.39-87.64,0,0-14.76,8.74,1.28,28.51,0,0,28.79,20.3,26,38.24,0,0,7.35-11.81,23.9-15,0,0-18.11,27.41,4.88,44.81,20,15.14,100.4,58,120.86,138-30.68-73-93.15-88-93.15-88h0a101.16,101.16,0,0,0-16.09-4.4c-9.71-1.79-18.12-3.26-25.57-4.51-57.08-10.87-95.69-40.84-114-84.73C615.87,97.84,606.53,41.11,674.53,8.37Zm54.75,184.47c27.33,12.71,64.58,25.31,83.07,39.46-56.25-42.39-102.85-45.94-119.12-85.79C693.23,146.51,696,177.37,729.28,192.84Zm-82.49-45.18s-16.44-37.43.53-89.68C647.32,58,618.75,97.37,646.79,147.66Z"/><path class="cls-1" d="M238.78,503.26c-35.64-31.6-22.13-55.16-22.13-55.16-28.73,1.68-23.89,21.49-23.89,21.49-22.25-27.36-3.95-47.67-3.95-47.67-23.38,5.75-28.23,17.81-29.69,28.77-6.7,50,105.09,90.47,157.39,104.18C283.45,531.25,241.93,506.05,238.78,503.26Z"/><path class="cls-1" d="M428.74,696.29C400.5,684.59,370.87,676.72,348,679c-28.65,2.89-24.7-14.75-24.7-14.75-28.5-12.72-15.33-32.21-15.33-32.21-34.88,19.71-54.55-32.57-54.55-32.57l34.23.71C379.79,601.51,428.74,696.29,428.74,696.29Zm-40.37-32.18c-61.14-52.55-93.48-49.23-93.48-49.23,2.24,3.92,7.6,4.54,7.6,4.54C348.21,631.89,388.37,664.11,388.37,664.11Z"/><path class="cls-1" d="M179.74,562.88c14.94,2.86,64.54-13.29,140.29,15.48-25.3-17.05-67.56-32.36-114.06-29-15.42,1.11-44.24-.49-60-9,0,0,.75,42.51,38.7,49.21l29.72-7.6c16.78-5.48,42.69-5.45,62.46-1.67,31.5,6,65.78,19.45,76.09,26.36C284.24,553.06,217.31,573.18,179.74,562.88Z"/><path class="cls-1" d="M160.28,210.05A37.48,37.48,0,0,0,169,161a118.34,118.34,0,0,0-15.63-19.91c-14.3,18-17.66,42.9-17.66,42.9-12-17.05-26.18-10.44-26.18-10.44,14.64,12.8,17.61,38.14-10,87.49-18,32.19-15.18,7.21-15.18,7.21,5.8-27.94,26.4-8.94,40.25-24.92,28.85-36.6,29.2-66.94,29.2-66.94,3.29,13.53-2,31.44-8,45.68C150.8,217.72,155.66,213.69,160.28,210.05Z"/><path class="cls-1" d="M153.48,387c45.82-12.58,64.87,23.46,64.87,23.46,14.22-9.68,13.3-28.8,8.13-32.09,19.27,4,34.24-21.48,34.24-21.48-8.41-6.38-14.53-8.89-23.55-10.06C260.77,344,271,328,275.11,311.69h0c4.74-18.52,3.73-28.24,1.68-37.35-3.23-14.36-11.45-16.53-16.13-13.24-3.28,2.31-2.12,8.93,2.66,11.71,5.22,3,5.89,7.66,6.25,12.5,1.29,17.49-16.42,34.6-30.38,37.19,0,0,22.51-14.57,20.91-36.26-4,5.49-12.78,8.51-24.67,7.12-32.75-3.82-48.59,12.86-48.59,12.86,12.3-11.39,11.45-31.83,11.45-31.83-74.27,0-109.23-21.59-117,79.76,8.3-35.27,22.42-19.41,57.94-48.71,0,0-48.28,5-53.3,69.81a102,102,0,0,0,6.46,14.32c-.25-60.37,44.13-69.47,88.27-79.42,0,0-45.48,18.12-67.39,72.62-27.15,67.49.6,106.22,66,138l4.19-3.21C93.16,472,111.28,398.56,153.48,387Z"/><path class="cls-1" d="M346.51,139.42c-18.31,43.89-56.93,73.86-114,84.73-7.44,1.25-15.86,2.72-25.56,4.51a101,101,0,0,0-16.1,4.4h0s-62.48,15.06-93.16,88c20.46-79.93,100.85-122.81,120.86-137.95,23-17.4,4.88-44.81,4.88-44.81,16.55,3.19,23.9,15,23.9,15-2.8-17.94,26-38.24,26-38.24,16-19.77,1.28-28.51,1.28-28.51C339.76,114.44,301,174.22,301,174.22c39.09-28.77,24.43-77.31,2-94.25-20.4-15.43-19.32-49.46-34.86-58.78,22.47-6.22,43.08,9.56,43.08,9.56-39.39-33.61-68.43-11.65-67-2.15-11.19.74-12.11-8.07-9.38-12.14,21.23-31.51,70.3-8.09,70.3-8.09C373.17,41.11,363.83,97.84,346.51,139.42Zm-60,7.09c-16.27,39.85-62.87,43.4-119.11,85.79,18.49-14.15,55.74-26.75,83.06-39.46C283.7,177.37,286.47,146.51,286.47,146.51ZM332.38,58c17,52.25.54,89.68.54,89.68C361,97.37,332.38,58,332.38,58Z"/><polygon class="cls-1" points="512.22 57.79 503.09 50.63 497.99 50.63 497.99 45.53 490.83 36.41 483.68 45.53 483.68 50.63 477.61 50.63 469.45 57.79 477.61 64.95 483.68 64.95 483.68 71.01 490.83 79.17 497.99 71.01 497.99 64.95 503.09 64.95 512.22 57.79"/><path class="cls-1" d="M391.55,327.07a2,2,0,0,1,.07-.23v0c1.07-5.54,8.12-8.61,10.33-9.75,2.4-1.24-2.2-2-2.2-2l.25-1.93c2,2.43,7.6-2.13,4-3.93s-6,1.5-6,1.5l-.93-8.41,10-.87a8.69,8.69,0,0,1,6.54-1.62A17.78,17.78,0,0,1,424.77,302a5.63,5.63,0,0,1-2.66.62,16.55,16.55,0,0,1,2.8,2.18,28.7,28.7,0,0,1,8.34,11.56c-1.37.2-1.89-.39-2.88-.95a30.73,30.73,0,0,1,.53,6.55c0,.45,0,.89-.09,1.33A36.2,36.2,0,0,1,428.18,336a3.93,3.93,0,0,1-1.59-1l-.28,3.08c12.33,10.46,11.12,16,12.38,18.78s6.53,8.08,9.48,3.85S445,352,438.85,346.38s-6.82-17.94.37-22.21,14.1,1.24,14.1,1.24l-1.21.82c4.16,1,4.6-3.73,4.6-3.73,3,5.81-4.12,7.14-4.12,7.14,3.26.74,2.09,5.33,2.09,5.33-2.7,7,5,7.6,5,7.6-10.38,1.62-9.66-8.12-9.66-8.12a3.67,3.67,0,0,1-4.84,1.18c7.44-6,.39-8.23.39-8.23-6.14-1.28-8.11,4-8.25,7.9a12.77,12.77,0,0,0,3.09,8.62l.84-2.65c4.08,7.32,13.21,7.59,12.4,18.67a8,8,0,0,1-9.69,6.94,14.61,14.61,0,0,1-7-4.62l0,10.48,11.29,7.86-2.68,1.88,5.83,9.14-4.35-1.13.49,9.91-2.4-3s-2.8,9.91-3.62,14-5.83,4.27-5.83,4.27c-.73-1.81-1.16-3.2-.56-4.94-2.83.65-4.19,4-4.19,4-2.85-.81-1.75-5.8-1.75-5.8-2.38-.47-4.78,1.58-4.78,1.58-3.16-8.09,8-8.8,8-8.8s4.41-9.28,5.4-12.37-6.62-7.59-12.45-10.66c-5.58-2.93-1-19.07-1-19.07L407.18,350l-1.12-7.16-.83,8.09-2,2.11,1.88.72-4.8,2.31-.54.65,2.11,1s-3.1,1.08-4.55,1.56l-4,4.26c-3.12,1-4,2.25-4.73,4.79a3.07,3.07,0,0,1-1-4.51,4.22,4.22,0,0,0-4.22,2.65c-2-4.71.8-5.57.8-5.57-.84-.9-1.84-.83-3-.37-.07-4.28,5.54-5.41,5.54-5.41l7-9.13-.6-4.31c1.86-2.56-.67-10.46-1.48-12.81a3.26,3.26,0,0,1-.11-1.84Z"/><path class="cls-1" d="M421,375.28c0,.63-.61,7.87-.61,7.87l-1.8-1.95-.57,4.39-1.81-1.49-5,7.91s-2.66,4.88-6.57,4a5.28,5.28,0,0,1,.59-3.39,16.38,16.38,0,0,0-3.59,2.49s-2.12-3.86,1.74-5.94a22.46,22.46,0,0,0-4.58,1.78s-2.09-4.59,5-6.44c4.42-1.17,8.25-7.34,8.25-7.34s-2.06-6-3.32-7.64c-2.1-2.79,3.28-12.1,4-11.9s8.55,4.56,8.55,4.56C420.37,366.45,419.57,369.63,421,375.28Z"/><path class="cls-1" d="M373.64,327.67l14.55,1.44s-.55.49,1,4.86-.07,6.35-.07,6.35l-2.72-.75a2.16,2.16,0,0,0-2.47,1.18,13.44,13.44,0,0,1-5.37-2.89c-1,.44-1.45.85-1.52,1.79a13.57,13.57,0,0,1-6.41-3.1c-3-.57-5.46,2.1-5.46,2.1-2.31-4,2.64-4.2,2.64-4.2-1-2.56-4.75-.93-4.75-.93,0-3.78,3-3.61,3-3.61-.37-3.72-3.64-3.2-3.64-3.2C364.35,320.53,373.64,327.67,373.64,327.67Z"/><path class="cls-1" d="M586.12,502.58c-10.12,2.83,1.58-3-7.75-8.06-6.23-3.39-13.23-1.58-12.8,7.6.27,5.94,3.18,13.14,10.21,10.58,3.14-1.16-1.06,7.38-6.85,7.63-2,.08-7.56-.69-8.32-4.77,0,5.78-2.32,13.33-4.17,13.41-1.83-.08-4.16-7.63-4.16-13.41-.76,4.08-6.32,4.85-8.33,4.77-5.78-.25-10-8.79-6.84-7.63,7,2.56,9.93-4.64,10.2-10.58.43-9.18-6.55-11-12.79-7.6-9.33,5.06,2.37,10.89-7.76,8.06s-9.37-19.52,3.13-22.81c6.3-1.67,12.08.52,16.26,3.12a34.85,34.85,0,0,1-1.2-10.44c.69-15.11,9.7-24.62,11.49-24.62,2,0,10.81,9.51,11.5,24.62a34.85,34.85,0,0,1-1.2,10.44c4.17-2.6,10-4.79,16.26-3.12C595.5,483.06,596.28,499.75,586.12,502.58Z"/><path class="cls-1" d="M606.85,377.3q-2.08,9.26-4.05,19.66a80.11,80.11,0,0,0-12,1.57,102.94,102.94,0,0,1-16.42,2q-13.18,0-23.13-5.2a37.63,37.63,0,0,1-15.5-14.89,42.56,42.56,0,0,1-5.55-21.54,41.38,41.38,0,0,1,5.87-21.54A40.69,40.69,0,0,1,552.26,322a48.52,48.52,0,0,1,23.19-5.5A122.62,122.62,0,0,1,590,317.69a89.25,89.25,0,0,0,10.35.92q.75,8.11,2.66,19.67c0,.61-.62.92-1.85.92a1.25,1.25,0,0,1-1.39-.92,23.15,23.15,0,0,0-9-13A25.94,25.94,0,0,0,575,320.23q-13.59,0-22.81,11.22T543,358.92q0,15.78,9.14,26.86t22.32,11.07q20.64,0,29.26-19.55a1.55,1.55,0,0,1,1.56-.92C606.31,376.38,606.85,376.69,606.85,377.3Z"/><path class="cls-1" d="M454.41,474.2c0,.81-.26,1.25-.77,1.3q-6,.69-8.29,2.23c-1.49,1-2.28,3-2.34,6l-1.06,57c0,.65-.39,1-1.17,1a2.86,2.86,0,0,1-1.54-.77l-49.82-56.31-.68,44.71a4.67,4.67,0,0,0-.05.72q0,3.67,2.32,5.2t8.36,2.24c.52.07.77.51.77,1.3s-.25,1.36-.77,1.36c-1.68,0-4-.09-6.91-.29q-4.11-.28-6.33-.29c-1.61,0-3.79.1-6.52.29s-4.69.29-6.14.29c-.52,0-.77-.46-.77-1.36s.29-1.23.87-1.3q6-.72,8.21-2.25c1.48-1,2.27-3,2.37-5.92l1.69-45.51v-.43c0-2.61-.76-4.44-2.28-5.47s-4.33-1.8-8.45-2.33c-.45,0-.68-.43-.68-1.32s.26-1.33.78-1.33c1.12,0,2.71.1,4.73.29,1.81.19,3.16.29,4.06.29a34.85,34.85,0,0,0,4.06-.29,36.41,36.41,0,0,1,4.16-.29l46.53,52V483.69q0-4.11-2.34-5.79c-1.57-1.1-4.45-1.91-8.67-2.4-.52-.05-.78-.49-.78-1.3s.26-1.35.78-1.35q2.61,0,6.95.29,4.06.28,6.29.29,2.41,0,6.52-.29t6.14-.29C454.15,472.85,454.41,473.3,454.41,474.2Z"/><path class="cls-1" d="M905.53,858.34c-1.52-2.07-2.26-4.86-2.26-8.53v-50.5a14.79,14.79,0,0,1,2.24-8.52l.25-.35H886.07c1.76,2.07,2.65,5,2.65,8.87v53a15.24,15.24,0,0,1-2.11,8.41c-.08.14-.18.27-.27.4h23.38A7.88,7.88,0,0,1,905.53,858.34Z"/><path class="cls-1" d="M933.89,845h-.42c-1.62,8.62-7.32,14.78-10.11,16.15H944C941.2,859.81,935.5,853.65,933.89,845Z"/><path class="cls-1" d="M68,856.21c-4.47-2.14-8.32-5.92-11.42-11.24S52,832.66,52,824.06a65.67,65.67,0,0,1,1.28-13.22,36.39,36.39,0,0,1,4.59-11.72,22.38,22.38,0,0,1,8.06-7.31,22.08,22.08,0,0,1,4.67-1.93,50.9,50.9,0,0,0-8.48,1.62c-4.25,1.3-10.44,3.85-14.38,7.44a42.15,42.15,0,0,0-6.11,7.34,34,34,0,0,0-4,8.93,38.72,38.72,0,0,0-1.49,11,39.37,39.37,0,0,0,2.32,13.33,34,34,0,0,0,6.79,11.4,32.45,32.45,0,0,0,11.29,7.89c4.55,2,12.38,3,18.24,3a39.54,39.54,0,0,0,13-1.92,31.87,31.87,0,0,0,9.16-4.75c.84-.65,1.67-1.35,2.49-2.08A29.54,29.54,0,0,1,81,859.34,30.31,30.31,0,0,1,68,856.21Z"/><path class="cls-1" d="M91,806.28h.42c1.61-8.62,7.31-14.78,10.11-16.15H80.89C83.69,791.5,89.38,797.66,91,806.28Z"/><path class="cls-1" d="M808.14,850V790.49H791.2a6.52,6.52,0,0,1,.51.78,16.8,16.8,0,0,1,1.89,8.19v52.91a15.23,15.23,0,0,1-2.13,8.36c-.11.15-.21.31-.32.45h24.42C810.74,859.75,808.14,855.89,808.14,850Z"/><path class="cls-1" d="M835.24,845.08h-.41c-1.62,8.62-7.32,14.78-10.12,16.15h20.65C842.56,859.86,836.86,853.7,835.24,845.08Z"/><path class="cls-1" d="M834.83,806.54h.41c1.62-8.62,7.32-14.77,10.12-16.15H824.71C827.51,791.77,833.21,797.92,834.83,806.54Z"/><path class="cls-1" d="M829.28,835.53V814.88c-1.38,2.8-7.53,8.5-16.15,10.12v.41C821.75,827,827.9,832.73,829.28,835.53Z"/><path class="cls-1" d="M509.91,861.3c-3.23-.53-8.75-1.41-11.42-2.63A32.58,32.58,0,0,1,487,850.16a36,36,0,0,1-6.66-11.78,40.35,40.35,0,0,1-2.18-12.87,39.23,39.23,0,0,1,2.48-13.86,33.38,33.38,0,0,1,7.25-11.5,33,33,0,0,1,11.6-7.69c2.37-1,7.49-1.67,10.22-2.14a17.44,17.44,0,0,0-8.29,6A32.26,32.26,0,0,0,495,810.72a87.06,87.06,0,0,0-1.18,13.82A102.38,102.38,0,0,0,495,840.06a33.72,33.72,0,0,0,6.42,15A17.48,17.48,0,0,0,509.91,861.3Zm7.89-.3a17.24,17.24,0,0,0,10.38-11,70.14,70.14,0,0,0,4-23.12,88.13,88.13,0,0,0-1.58-17.08,31,31,0,0,0-6.82-14.36,17.44,17.44,0,0,0-7.34-5.06c2.72.47,7.82,1.19,10.17,2.15a33,33,0,0,1,18.78,19.27,41.6,41.6,0,0,1,.07,28,34,34,0,0,1-7,11.44A32.15,32.15,0,0,1,526.92,859C524.86,859.86,520.12,860.52,517.8,861Z"/><path class="cls-1" d="M279.14,861.15c-2-3.66-3.59-6.64-4.7-8.86-4.05-7.93-7-13.52-8.91-16.62a23.49,23.49,0,0,0-6.4-7.41,13.47,13.47,0,0,0-4.6-2c4.93-.47,8.85-2.06,11.67-4.74,3.46-3.28,5.21-8,5.21-13.92a19.2,19.2,0,0,0-2.23-9.52,14.88,14.88,0,0,0-6.82-6.2,19.45,19.45,0,0,0-4.21-1.4h5.25a33.43,33.43,0,0,1,12.67,2.22,17.39,17.39,0,0,1,7.86,6,14.72,14.72,0,0,1,2.64,8.72,14.57,14.57,0,0,1-1.65,7c-4.73,8.65-15.19,11.1-18.8,11.86,0,0,9.56,0,16.48,11.74l9,15.33a40.49,40.49,0,0,0,4.54,6.51c.42.47.83.9,1.23,1.28Zm-46.18,0c.11-.14.21-.29.31-.44a15.47,15.47,0,0,0,2.07-8.37V799.43c0-4-.84-7-2.54-9h17.08v61.87c0,3.35.53,5.86,1.63,7.68a8.66,8.66,0,0,0,.78,1.13Z"/><path class="cls-1" d="M627.87,861.15c-2-3.66-3.59-6.64-4.7-8.86-4-7.93-7-13.52-8.91-16.62a23.49,23.49,0,0,0-6.4-7.41,13.47,13.47,0,0,0-4.6-2c4.93-.47,8.85-2.06,11.67-4.74,3.46-3.28,5.21-8,5.21-13.92a19.2,19.2,0,0,0-2.23-9.52,14.88,14.88,0,0,0-6.82-6.2,19.45,19.45,0,0,0-4.21-1.4h5.25a33.39,33.39,0,0,1,12.67,2.22,17.39,17.39,0,0,1,7.86,6,14.72,14.72,0,0,1,2.64,8.72,14.57,14.57,0,0,1-1.65,7c-4.72,8.65-15.19,11.1-18.8,11.86,0,0,9.56,0,16.48,11.74l9,15.33a40.49,40.49,0,0,0,4.54,6.51c.42.47.83.9,1.23,1.28Zm-46.18,0c.11-.14.21-.29.31-.44a15.47,15.47,0,0,0,2.07-8.37V799.43c0-4-.83-7-2.54-9h17.08v61.87c0,3.35.53,5.86,1.63,7.68a8.66,8.66,0,0,0,.78,1.13Z"/><path class="cls-1" d="M710.29,861.56c-5,0-12.16-1.18-16.12-3.51a22.49,22.49,0,0,1-8.76-8.83c-2-3.74-3-10-3-18.51V798.92c0-3.74-.82-6.7-2.43-8.78l-.06-.08h19.47a3.19,3.19,0,0,0-.3.42,15.18,15.18,0,0,0-2.14,8.44V832.6c0,5.33.65,9.47,2,12.67a18.11,18.11,0,0,0,10.42,10.15,20.7,20.7,0,0,0,7.34,1.33,21.11,21.11,0,0,0,7.65-1.42,20.83,20.83,0,0,0,5.5-3.17C725,858.48,718.54,861.56,710.29,861.56Zm22.18-.82V798.92c0-4-.79-6.88-2.43-8.86h19.4l-.24.33a15,15,0,0,0-2.18,8.53v53c0,3.86.79,6.75,2.42,8.81Z"/><path class="cls-1" d="M441.47,853.87,440,851.81V803.54c2.2-7,6.9-11.94,9.36-13.14H428.72c2.46,1.2,7.16,6.11,9.36,13.14V849.1l-41.44-58.47-21.78-.07,9.36,12.84v44.68c-2.19,7-6.89,11.94-9.36,13.14h20.65c-2.46-1.2-7.17-6.11-9.36-13.14V806L419,851.16c2.12,3.16,2.07,8.86-.78,10h31C449.05,861,444.12,857.46,441.47,853.87Z"/><path class="cls-1" d="M171.57,861.11h29.61c-.22-.17-6-3.25-7.81-7.32-4.5-10-15-34-22.59-55.11l-1.52-4.27c-.46-1.32-.91-2.63-1.34-3.91h0l-.75-2.11h0l-1.18-3.29-10.21,22.46.16-.09-18.47,40.24c-3.76,7.22-7.62,12.21-10.12,13.43h20.64c-2.49-1.22-7.23-3.39-8.46-12.51l17-37,15.88,39.5C174.18,856.53,174.18,859,171.57,861.11Z"/><path class="cls-1" d="M572.92,935.21l.11-.15a5.26,5.26,0,0,0,.74-2.91V913.81a4.61,4.61,0,0,0-.91-3.07h6.78a.91.91,0,0,0-.11.16,5.26,5.26,0,0,0-.73,2.91v18.34a7.84,7.84,0,0,0,.18,1.75,2.89,2.89,0,0,0,.7,1.31Z"/><path class="cls-1" d="M214.8,935.21l.11-.15a5.26,5.26,0,0,0,.74-2.91V913.81a4.61,4.61,0,0,0-.91-3.07h6.78a.91.91,0,0,0-.11.16,5.26,5.26,0,0,0-.73,2.91v18.34a7.84,7.84,0,0,0,.18,1.75,2.89,2.89,0,0,0,.7,1.31Z"/><path class="cls-1" d="M752,934.22a4.81,4.81,0,0,1-.78-3V913.79a5.17,5.17,0,0,1,.77-2.95l.09-.12H745.3a4.63,4.63,0,0,1,.92,3.07v18.35a5.21,5.21,0,0,1-.73,2.91l-.09.14h8.09A2.72,2.72,0,0,1,752,934.22Z"/><path class="cls-1" d="M761.85,929.62h-.14a8.6,8.6,0,0,1-3.5,5.59h7.15A8.6,8.6,0,0,1,761.85,929.62Z"/><path class="cls-1" d="M348.94,931.31V910.72h-5.86c.07.09.12.18.18.27a5.87,5.87,0,0,1,.65,2.84v18.31a5.23,5.23,0,0,1-.74,2.89.91.91,0,0,1-.11.16h8.46C349.85,934.7,348.94,933.36,348.94,931.31Z"/><path class="cls-1" d="M358.33,929.62h-.15a8.6,8.6,0,0,1-3.5,5.59h7.15A8.6,8.6,0,0,1,358.33,929.62Z"/><path class="cls-1" d="M358.18,916.28h.15a8.54,8.54,0,0,1,3.5-5.59h-7.15A8.54,8.54,0,0,1,358.18,916.28Z"/><path class="cls-1" d="M356.26,926.31v-7.15a8.53,8.53,0,0,1-5.59,3.5v.15A8.57,8.57,0,0,1,356.26,926.31Z"/><path class="cls-1" d="M620,935.21a20,20,0,0,1-4-.92,11.24,11.24,0,0,1-4-2.94,12.47,12.47,0,0,1-2.31-4.08,14,14,0,0,1-.75-4.45,13.6,13.6,0,0,1,.86-4.8,11.31,11.31,0,0,1,2.51-4,11.44,11.44,0,0,1,4-2.66,21.53,21.53,0,0,1,3.54-.74A6,6,0,0,0,617,912.7a11.31,11.31,0,0,0-2.22,5,30.17,30.17,0,0,0-.41,4.78,35.36,35.36,0,0,0,.41,5.37,11.68,11.68,0,0,0,2.22,5.2A6.1,6.1,0,0,0,620,935.21Zm2.74-.11a6,6,0,0,0,3.59-3.82,24.16,24.16,0,0,0,1.37-8,30.75,30.75,0,0,0-.55-5.91,10.75,10.75,0,0,0-2.36-5,6,6,0,0,0-2.54-1.75,22.6,22.6,0,0,1,3.52.74,11.4,11.4,0,0,1,6.5,6.67,14.39,14.39,0,0,1,0,9.69,11.65,11.65,0,0,1-2.41,4,11.11,11.11,0,0,1-4,2.71A23.72,23.72,0,0,1,622.71,935.1Z"/><path class="cls-1" d="M402.07,935.21c-.69-1.27-1.24-2.31-1.63-3.07-1.4-2.75-2.43-4.68-3.08-5.76a8.1,8.1,0,0,0-2.22-2.56,4.57,4.57,0,0,0-1.59-.69,6.64,6.64,0,0,0,4-1.65,6.33,6.33,0,0,0,1.81-4.82,6.56,6.56,0,0,0-.78-3.29,5.1,5.1,0,0,0-2.36-2.15,6.85,6.85,0,0,0-1.45-.48h1.81a11.56,11.56,0,0,1,4.39.77,6,6,0,0,1,2.72,2.06,5.15,5.15,0,0,1,.91,3,5.05,5.05,0,0,1-.57,2.44c-1.63,3-5.26,3.84-6.5,4.11,0,0,3.3,0,5.7,4.06l3.12,5.31a14.72,14.72,0,0,0,1.57,2.25l.43.45Zm-16,0,.1-.16a5.3,5.3,0,0,0,.72-2.9V913.84a4.61,4.61,0,0,0-.88-3.1h5.91v21.41a5.13,5.13,0,0,0,.57,2.66,2.8,2.8,0,0,0,.27.4Z"/><path class="cls-1" d="M310.17,932.15V910.74h-5v21.41a5.26,5.26,0,0,1-.74,2.91l-.11.15h6.74a2.93,2.93,0,0,1-.61-1.05A6.61,6.61,0,0,1,310.17,932.15Z"/><path class="cls-1" d="M312.54,910.74a8.54,8.54,0,0,1,3.5,5.58h.14a8.58,8.58,0,0,1,3.5-5.58Z"/><path class="cls-1" d="M299.18,916.32h.14a8.54,8.54,0,0,1,3.5-5.58h-7.15A8.55,8.55,0,0,1,299.18,916.32Z"/><path class="cls-1" d="M534,932.15V910.74h-5v21.41a5.26,5.26,0,0,1-.74,2.91l-.1.15h6.73a2.9,2.9,0,0,1-.6-1.05A6.61,6.61,0,0,1,534,932.15Z"/><path class="cls-1" d="M536.36,910.74a8.54,8.54,0,0,1,3.5,5.58H540a8.54,8.54,0,0,1,3.5-5.58Z"/><path class="cls-1" d="M523,916.32h.14a8.55,8.55,0,0,1,3.51-5.58H519.5A8.54,8.54,0,0,1,523,916.32Z"/><path class="cls-1" d="M452.12,932.66l-.5-.71V915.26a8.19,8.19,0,0,1,3.23-4.54h-7.13a8.19,8.19,0,0,1,3.23,4.54V931L436.63,910.8l-7.54,0,3.24,4.44v15.45a8.22,8.22,0,0,1-3.24,4.55h7.14a8.26,8.26,0,0,1-3.23-4.55V916.13l11.36,15.6c.74,1.09.72,3.06-.27,3.46h10.73A15,15,0,0,1,452.12,932.66Z"/><path class="cls-1" d="M676,932.66l-.51-.71V915.26a8.19,8.19,0,0,1,3.24-4.54h-7.14a8.19,8.19,0,0,1,3.24,4.54V931L660.45,910.8l-7.53,0,3.24,4.44v15.45a8.27,8.27,0,0,1-3.24,4.55h7.14a8.27,8.27,0,0,1-3.24-4.55V916.13l11.37,15.6c.73,1.09.71,3.06-.27,3.46h10.73A14.66,14.66,0,0,1,676,932.66Z"/><path class="cls-1" d="M273.06,932.66l-.5-.71V915.26a8.19,8.19,0,0,1,3.23-4.54h-7.13a8.19,8.19,0,0,1,3.23,4.54V931L257.57,910.8l-7.54,0,3.24,4.44v15.45a8.22,8.22,0,0,1-3.24,4.55h7.14a8.26,8.26,0,0,1-3.23-4.55V916.13l11.36,15.6c.74,1.09.72,3.06-.27,3.46h10.73A15,15,0,0,1,273.06,932.66Z"/><path class="cls-1" d="M489.1,935.2h9.52a6.67,6.67,0,0,1-2.51-2.35c-1.44-3.22-4.81-11-7.26-17.73l-.49-1.38c-.15-.42-.3-.84-.44-1.26h0l-.24-.67h0l-.38-1.06L484,918l.05,0-5.94,12.94c-1.21,2.33-2.45,3.93-3.26,4.33h6.65c-.81-.4-2.33-1.09-2.73-4l5.47-11.91L489.35,932C489.94,933.73,489.94,934.53,489.1,935.2Z"/><path class="cls-1" d="M712.92,935.2h9.53a6.59,6.59,0,0,1-2.51-2.35c-1.45-3.22-4.81-11-7.27-17.73l-.49-1.38c-.15-.42-.29-.84-.43-1.26h0l-.24-.67h0l-.38-1.06L707.83,918l0,0-6,12.94c-1.2,2.33-2.45,3.93-3.25,4.33h6.64c-.8-.4-2.33-1.09-2.72-4l5.47-11.91L713.18,932C713.76,933.73,713.76,934.53,712.92,935.2Z"/></g></g></svg>