<svg xmlns="http://www.w3.org/2000/svg" viewBox="0 0 999.91 935.21"><defs><style>.cls-1{fill:#fff;}</style></defs><g id="レイヤー_2" data-name="レイヤー 2"><g id="レイヤー_2-2" data-name="レイヤー 2"><rect class="cls-1" y="921.02" width="180.53" height="6.99"/><rect class="cls-1" x="800.96" y="921.02" width="198.95" height="6.99"/><rect class="cls-1" y="726.39" width="327.94" height="6.99"/><rect class="cls-1" x="653.54" y="726.39" width="346.37" height="6.99"/><path class="cls-1" d="M500.9,93.77c-9.64-6.64-30.53-18.85-48.64-14.58-9.34,2.2-16.68,8.54-21.22,18.31-5.19,11.2-7.26,29.86,12.41,55.1a142.53,142.53,0,0,0,13.79,15.13c-4.33,1-8.26,2.08-11.8,3.2-10.38-6.16-27.24-19.89-33.62-34.49-3.2-7.34-3.11-13.44.29-18.65a16.22,16.22,0,0,1,8-6.53,45.86,45.86,0,0,1,4.19-16.89l.27-.55c-9.7.56-19.32,4.57-26.16,15-6.45,9.9-7,21.7-1.58,34.12,6,13.68,18.57,26.54,30.5,35.44v0a0,0,0,0,1,0,0,72.08,72.08,0,0,0-9.39,6.25s2.09-1.92,0,0l16.77,18.58a.24.24,0,0,1,.07.18.32.32,0,0,1-.09.17c.18-.15,18-14.5,66.22-15.67,48.26,1.17,66,15.52,66.21,15.67a.25.25,0,0,1-.08-.17.23.23,0,0,1,.06-.18c16-17.77,16.74-18.55,16.78-18.58-2.09-1.92,0,0,0,0a71.45,71.45,0,0,0-9.4-6.25s0,0,0,0v0C586.39,169.52,599,156.66,605,143c5.42-12.42,4.87-24.22-1.58-34.12-6.83-10.47-16.45-14.48-26.16-15l.27.55a45.86,45.86,0,0,1,4.2,16.89,16.2,16.2,0,0,1,8,6.53c3.4,5.21,3.5,11.31.29,18.65-6.37,14.6-23.24,28.33-33.62,34.49-3.54-1.12-7.46-2.21-11.79-3.2a143.57,143.57,0,0,0,13.78-15.13c19.67-25.24,17.6-43.9,12.41-55.1-4.54-9.77-11.87-16.11-21.22-18.31C531.42,74.92,510.53,87.13,500.9,93.77Zm-.29,68.93c-8.27.19-15.78.74-22.64,1.53a143.4,143.4,0,0,1-19-18.4c-9.53-11.29-19.54-27.63-13.13-41.45,3.21-6.92,7.31-8.61,10.12-9.27C469.06,92,489.16,105,495.8,110.3l5.09,4.06h0L506,110.3c6.64-5.27,26.74-18.28,39.8-15.19,2.81.66,6.91,2.35,10.12,9.27,6.41,13.82-3.6,30.16-13.13,41.45a144,144,0,0,1-18.95,18.4c-6.86-.79-14.38-1.34-22.64-1.53Z"/><path class="cls-1" d="M500.9,121,472,138.8l7,17.83c5.31-.56,11-1,17.08-1.21l-3.85-9.84,8.73-5.36,8.72,5.36-3.85,9.84c6.08.23,11.77.65,17.08,1.21l7-17.83Z"/><path class="cls-1" d="M615.13,239.59a408.72,408.72,0,0,1,67.4,5.88c-9.86,46.13-4.19,86.45,3.47,140.89,2.41,17.16,4.91,34.9,7.25,55,10,85.5-80.89,139.69-124.57,165.74-31.89,19-53.83,36.52-67.78,54.21-14-17.69-35.9-35.19-67.79-54.21-43.67-26.05-134.55-80.24-124.57-165.74,2.34-20.1,4.84-37.84,7.25-55,7.66-54.44,13.33-94.76,3.47-140.89a408.75,408.75,0,0,1,67.41-5.88c46.56,0,83.21,8.92,108.93,26.52l5.3,3.63,5.29-3.63c25.73-17.6,62.38-26.52,108.94-26.52ZM338,431.89H499v189.8L514.07,610a397.22,397.22,0,0,1,40.2-27.05c26.17-15.6,56-34.3,79.19-58.76,15.72-16.6,36.12-42.9,31.84-79.55-.27-2.33-.54-4.62-.82-6.89l-1-8.24H502.84V305.16l-4.08-2.79-19.05-13c-20.66-14.14-52.84-21.61-93-21.61-8.36,0-17.07.33-25.88,1l-9.24.68.57,9.25c2.2,35.82-2.74,70.95-8.46,111.64-1.38,9.79-2.84,20.25-4.26,31L338,431.89ZM615.13,230.21c-37.78,0-81.76,5.94-114.23,28.16h0c-32.48-22.22-76.46-28.16-114.23-28.16a402.61,402.61,0,0,0-78.78,7.88c16.11,62.71,1.74,113-8.67,202.18s79,145,129.08,174.88c42.83,25.54,62.64,45.78,72.6,62.67,10-16.89,29.77-37.13,72.59-62.67,50-29.84,139.48-85.69,129.08-174.88S677.79,300.8,693.9,238.09a402.57,402.57,0,0,0-78.77-7.88ZM348.7,422.51c1.41-10.71,2.84-20.94,4.25-30.93,5.81-41.36,10.79-76.75,8.53-113.52,7.82-.58,16.32-.95,25.19-.95,38.31,0,68.65,6.9,87.74,20l19,13v112.4Zm159.63,180V438.87H655.17c.27,2.25.55,4.52.82,6.83,3.82,32.75-14.92,56.79-29.34,72-22.35,23.59-51.56,41.87-77.18,57.16a410.87,410.87,0,0,0-41.14,27.68Z"/><path class="cls-1" d="M751,503.26c35.64-31.6,22.12-55.16,22.12-55.16,28.74,1.68,23.9,21.49,23.9,21.49,22.24-27.36,4-47.67,4-47.67,23.38,5.75,28.22,17.81,29.69,28.77,6.69,50-105.09,90.47-157.4,104.18C706.32,531.25,747.84,506.05,751,503.26Z"/><path class="cls-1" d="M702.16,600.22l34.23-.71s-19.66,52.28-54.55,32.57c0,0,13.17,19.49-15.32,32.21,0,0,3.94,17.64-24.71,14.75-22.92-2.32-52.54,5.55-80.78,17.25C561,696.29,610,601.51,702.16,600.22Zm-14.89,19.2s5.36-.62,7.61-4.54c0,0-32.34-3.32-93.48,49.23C601.4,664.11,641.56,631.89,687.27,619.42Z"/><path class="cls-1" d="M810,562.88c-14.94,2.86-64.54-13.29-140.29,15.48,25.3-17.05,67.56-32.36,114-29,15.43,1.11,44.25-.49,60-9,0,0-.75,42.51-38.7,49.21l-29.72-7.6c-16.79-5.48-42.69-5.45-62.46-1.67-31.51,6-65.78,19.45-76.09,26.36C705.53,553.06,772.45,573.18,810,562.88Z"/><path class="cls-1" d="M829.49,210.05A37.46,37.46,0,0,1,820.75,161a118.59,118.59,0,0,1,15.62-19.91C850.68,159.1,854,184,854,184c12-17.05,26.18-10.44,26.18-10.44-14.64,12.8-17.61,38.14,10,87.49,18,32.19,15.19,53.73,15.19,53.73-5.81-27.94-26.4-55.46-40.25-71.44-28.86-36.6-29.21-66.94-29.21-66.94-3.28,13.53,2,31.44,8,45.68C839,217.72,834.1,213.69,829.49,210.05Z"/><path class="cls-1" d="M836.28,387c-45.81-12.58-64.86,23.46-64.86,23.46-14.23-9.68-13.31-28.8-8.13-32.09-19.27,4-34.24-21.48-34.24-21.48,8.41-6.38,14.53-8.89,23.54-10.06C729,344,718.81,328,714.65,311.69h0c-4.73-18.52-3.73-28.24-1.67-37.35,3.23-14.36,11.45-16.53,16.13-13.24,3.28,2.31,2.11,8.93-2.66,11.71-5.22,3-5.89,7.66-6.25,12.5-1.29,17.49,16.41,34.6,30.38,37.19,0,0-22.51-14.57-20.91-36.26,4,5.49,12.77,8.51,24.67,7.12,32.75-3.82,48.58,12.86,48.58,12.86-12.3-11.39-11.44-31.83-11.44-31.83,74.27,0,109.22,24.93,117,126.27-8.3-35.26-22.42-65.92-57.93-95.22,0,0,48.28,51.53,53.3,116.33a102.1,102.1,0,0,1-6.47,14.32c.25-60.37-44.12-116-88.27-125.94,0,0,45.49,18.12,67.4,72.62,27.14,67.49-.6,106.22-66,138l-4.2-3.21C896.61,472,878.49,398.56,836.28,387Z"/><path class="cls-1" d="M684.6,8.37S733.67-15,754.89,16.46c2.74,4.07,1.82,12.88-9.37,12.14,1.44-9.5-27.6-31.46-67,2.15,0,0,20.62-15.78,43.08-9.56C706.06,30.51,707.14,64.54,686.75,80c-22.39,16.94-37,65.48,2,94.25,0,0-38.78-59.78,26.39-87.64,0,0-14.76,8.74,1.29,28.51,0,0,28.79,20.3,26,38.24,0,0,7.36-11.81,23.91-15,0,0-18.12,27.41,4.87,44.81,20,15.14,100.4,58,120.86,138-30.68-73-93.15-88-93.15-88h0a101.57,101.57,0,0,0-16.1-4.4c-9.7-1.79-18.12-3.26-25.57-4.51-57.08-10.87-95.69-40.84-114-84.73C625.94,97.84,616.6,41.11,684.6,8.37Zm54.74,184.47c27.33,12.71,64.58,25.31,83.07,39.46-56.25-42.39-102.85-45.94-119.12-85.79C703.29,146.51,706.07,177.37,739.34,192.84Zm-82.49-45.18s-16.43-37.43.53-89.68C657.38,58,628.81,97.37,656.85,147.66Z"/><path class="cls-1" d="M248.84,503.26c-35.64-31.6-22.12-55.16-22.12-55.16-28.74,1.68-23.9,21.49-23.9,21.49-22.24-27.36-3.95-47.67-3.95-47.67-23.38,5.75-28.22,17.81-29.69,28.77-6.69,50,105.09,90.47,157.4,104.18C293.51,531.25,252,506.05,248.84,503.26Z"/><path class="cls-1" d="M438.8,696.29C410.56,684.59,380.94,676.72,358,679c-28.65,2.89-24.71-14.75-24.71-14.75C304.82,651.57,318,632.08,318,632.08c-34.89,19.71-54.55-32.57-54.55-32.57l34.23.71C389.85,601.51,438.8,696.29,438.8,696.29Zm-40.37-32.18C337.29,611.56,305,614.88,305,614.88c2.25,3.92,7.61,4.54,7.61,4.54C358.27,631.89,398.43,664.11,398.43,664.11Z"/><path class="cls-1" d="M189.8,562.88c14.94,2.86,64.54-13.29,140.29,15.48-25.3-17.05-67.56-32.36-114-29-15.43,1.11-44.25-.49-60-9,0,0,.75,42.51,38.7,49.21l29.72-7.6c16.79-5.48,42.69-5.45,62.46-1.67,31.51,6,65.78,19.45,76.09,26.36C294.3,553.06,227.37,573.18,189.8,562.88Z"/><path class="cls-1" d="M170.34,210.05A37.46,37.46,0,0,0,179.08,161a118.59,118.59,0,0,0-15.62-19.91c-14.31,18-17.67,42.9-17.67,42.9-12-17.05-26.18-10.44-26.18-10.44,14.64,12.8,17.61,38.14-10,87.49-18,32.19-15.19,7.21-15.19,7.21,5.81-27.94,26.4-8.94,40.25-24.92,28.86-36.6,29.21-66.94,29.21-66.94,3.28,13.53-2,31.44-8,45.68C160.86,217.72,165.73,213.69,170.34,210.05Z"/><path class="cls-1" d="M163.54,387c45.82-12.58,64.87,23.46,64.87,23.46,14.23-9.68,13.31-28.8,8.13-32.09,19.27,4,34.24-21.48,34.24-21.48-8.41-6.38-14.53-8.89-23.54-10.06C270.83,344,281,328,285.18,311.69h0c4.73-18.52,3.72-28.24,1.67-37.35-3.23-14.36-11.45-16.53-16.13-13.24-3.28,2.31-2.11,8.93,2.66,11.71,5.22,3,5.89,7.66,6.25,12.5,1.29,17.49-16.41,34.6-30.38,37.19,0,0,22.51-14.57,20.91-36.26-4,5.49-12.77,8.51-24.67,7.12-32.75-3.82-48.58,12.86-48.58,12.86,12.3-11.39,11.44-31.83,11.44-31.83-74.27,0-109.23-21.59-117,79.76,8.3-35.27,22.42-19.41,57.93-48.71,0,0-48.28,5-53.3,69.81a103.2,103.2,0,0,0,6.46,14.32c-.24-60.37,44.13-69.47,88.28-79.42,0,0-45.49,18.12-67.4,72.62-27.14,67.49.6,106.22,66,138l4.19-3.21C103.22,472,121.34,398.56,163.54,387Z"/><path class="cls-1" d="M356.58,139.42c-18.32,43.89-56.93,73.86-114,84.73-7.45,1.25-15.87,2.72-25.57,4.51a101.28,101.28,0,0,0-16.1,4.4h0s-62.47,15.06-93.15,88C128.2,241.16,208.59,198.28,228.6,183.14c23-17.4,4.87-44.81,4.87-44.81,16.55,3.19,23.91,15,23.91,15-2.81-17.94,26-38.24,26-38.24,16-19.77,1.28-28.51,1.28-28.51,65.18,27.86,26.4,87.64,26.4,87.64,39.08-28.77,24.43-77.31,2-94.25-20.39-15.43-19.31-49.46-34.85-58.78,22.46-6.22,43.08,9.56,43.08,9.56-39.4-33.61-68.44-11.65-67-2.15-11.19.74-12.11-8.07-9.37-12.14C266.16-15,315.23,8.37,315.23,8.37,383.23,41.11,373.89,97.84,356.58,139.42Zm-60,7.09c-16.27,39.85-62.87,43.4-119.12,85.79,18.49-14.15,55.74-26.75,83.07-39.46C293.76,177.37,296.54,146.51,296.54,146.51ZM342.45,58c17,52.25.53,89.68.53,89.68C371,97.37,342.45,58,342.45,58Z"/><polygon class="cls-1" points="522.28 57.79 513.16 50.63 508.05 50.63 508.05 45.53 500.9 36.41 493.74 45.53 493.74 50.63 487.67 50.63 479.51 57.79 487.67 64.95 493.74 64.95 493.74 71.01 500.9 79.17 508.05 71.01 508.05 64.95 513.16 64.95 522.28 57.79"/><path class="cls-1" d="M401.61,327.07c0-.08.06-.15.07-.23v0c1.07-5.54,8.12-8.61,10.33-9.75,2.4-1.24-2.2-2-2.2-2l.25-1.93c2,2.43,7.6-2.13,4-3.93s-6,1.5-6,1.5l-.93-8.41,10-.87a8.69,8.69,0,0,1,6.54-1.62A17.8,17.8,0,0,1,434.84,302a5.66,5.66,0,0,1-2.66.62,16.88,16.88,0,0,1,2.79,2.18,28.6,28.6,0,0,1,8.35,11.56c-1.38.2-1.9-.39-2.89-.95a30.09,30.09,0,0,1,.53,6.55c0,.45,0,.89-.09,1.33A36.38,36.38,0,0,1,438.25,336a3.87,3.87,0,0,1-1.59-1l-.29,3.08c12.33,10.46,11.13,16,12.39,18.78s6.53,8.08,9.48,3.85-3.17-8.69-9.32-14.33-6.83-17.94.36-22.21,14.1,1.24,14.1,1.24l-1.21.82c4.16,1,4.6-3.73,4.6-3.73,3,5.81-4.11,7.14-4.11,7.14,3.25.74,2.09,5.33,2.09,5.33-2.7,7,5,7.6,5,7.6-10.37,1.62-9.65-8.12-9.65-8.12a3.67,3.67,0,0,1-4.84,1.18c7.44-6,.38-8.23.38-8.23-6.14-1.28-8.11,4-8.24,7.9a12.79,12.79,0,0,0,3.08,8.62l.84-2.65c4.09,7.32,13.21,7.59,12.4,18.67a8,8,0,0,1-9.68,6.94,14.55,14.55,0,0,1-7-4.62l0,10.48,11.29,7.86-2.69,1.88,5.83,9.14-4.35-1.13.49,9.91-2.39-3s-2.81,9.91-3.63,14-5.82,4.27-5.82,4.27c-.73-1.81-1.16-3.2-.57-4.94-2.83.65-4.19,4-4.19,4-2.85-.81-1.75-5.8-1.75-5.8-2.38-.47-4.78,1.58-4.78,1.58-3.15-8.09,8.05-8.8,8.05-8.8s4.41-9.28,5.39-12.37-6.61-7.59-12.45-10.66c-5.57-2.93-1-19.07-1-19.07L417.24,350l-1.12-7.16-.82,8.09-2,2.11,1.87.72-4.8,2.31-.53.65,2.1,1s-3.1,1.08-4.54,1.56l-4,4.26c-3.12,1-4,2.25-4.73,4.79a3.08,3.08,0,0,1-1-4.51c-2.31.09-3.19.81-4.22,2.65-2-4.71.8-5.57.8-5.57-.84-.9-1.84-.83-3-.37-.07-4.28,5.54-5.41,5.54-5.41l7-9.13-.6-4.31c1.87-2.56-.67-10.46-1.48-12.81a3.35,3.35,0,0,1-.11-1.84Z"/><path class="cls-1" d="M431.08,375.28c0,.63-.62,7.87-.62,7.87l-1.8-1.95-.57,4.39-1.81-1.49-5,7.91s-2.66,4.88-6.57,4a5.34,5.34,0,0,1,.59-3.39,16.65,16.65,0,0,0-3.59,2.49s-2.12-3.86,1.74-5.94a22.26,22.26,0,0,0-4.57,1.78s-2.09-4.59,5-6.44c4.42-1.17,8.25-7.34,8.25-7.34s-2.05-6-3.31-7.64c-2.11-2.79,3.28-12.1,4-11.9s8.56,4.56,8.56,4.56C430.44,366.45,429.63,369.63,431.08,375.28Z"/><path class="cls-1" d="M383.71,327.67l14.54,1.44s-.54.49,1,4.86-.07,6.35-.07,6.35l-2.72-.75a2.15,2.15,0,0,0-2.46,1.18,13.48,13.48,0,0,1-5.38-2.89c-1,.44-1.45.85-1.52,1.79a13.5,13.5,0,0,1-6.4-3.1c-3-.57-5.46,2.1-5.46,2.1-2.31-4,2.64-4.2,2.64-4.2-1-2.56-4.76-.93-4.76-.93,0-3.78,3-3.61,3-3.61-.38-3.72-3.65-3.2-3.65-3.2C374.42,320.53,383.71,327.67,383.71,327.67Z"/><path class="cls-1" d="M596.19,502.58c-10.13,2.83,1.57-3-7.76-8.06-6.23-3.39-13.22-1.58-12.8,7.6.27,5.94,3.18,13.14,10.21,10.58,3.15-1.16-1.06,7.38-6.84,7.63-2,.08-7.57-.69-8.32-4.77,0,5.78-2.33,13.33-4.18,13.41-1.83-.08-4.16-7.63-4.16-13.41-.76,4.08-6.32,4.85-8.33,4.77-5.78-.25-10-8.79-6.83-7.63,7,2.56,9.93-4.64,10.19-10.58.43-9.18-6.54-11-12.78-7.6-9.34,5.06,2.36,10.89-7.77,8.06s-9.37-19.52,3.13-22.81c6.31-1.67,12.08.52,16.26,3.12a35.51,35.51,0,0,1-1.2-10.44c.69-15.11,9.71-24.62,11.49-24.62,2,0,10.81,9.51,11.5,24.62a34.85,34.85,0,0,1-1.2,10.44c4.18-2.6,10-4.79,16.27-3.12C605.57,483.06,606.34,499.75,596.19,502.58Z"/><path class="cls-1" d="M616.91,377.3q-2.08,9.26-4,19.66a80,80,0,0,0-12,1.57,102.9,102.9,0,0,1-16.43,2q-13.17,0-23.12-5.2a37.63,37.63,0,0,1-15.5-14.89,42.56,42.56,0,0,1-5.55-21.54,41.29,41.29,0,0,1,5.87-21.54A40.62,40.62,0,0,1,562.33,322a48.45,48.45,0,0,1,23.18-5.5,122.46,122.46,0,0,1,14.57,1.16,89.19,89.19,0,0,0,10.36.92c.49,5.41,1.39,12,2.66,19.67,0,.61-.62.92-1.86.92a1.25,1.25,0,0,1-1.39-.92,23.13,23.13,0,0,0-9-13,26,26,0,0,0-15.85-5.09q-13.59,0-22.81,11.22T553,358.92q0,15.78,9.14,26.86t22.32,11.07q20.64,0,29.26-19.55a1.55,1.55,0,0,1,1.56-.92C616.37,376.38,616.91,376.69,616.91,377.3Z"/><path class="cls-1" d="M464.48,474.2c0,.81-.27,1.25-.77,1.3q-6,.69-8.3,2.23c-1.49,1-2.28,3-2.34,6l-1.06,57c0,.65-.39,1-1.16,1a2.88,2.88,0,0,1-1.55-.77l-49.82-56.31-.68,44.71a6.39,6.39,0,0,0-.05.72q0,3.67,2.32,5.2c1.55,1,4.33,1.76,8.36,2.24.52.07.77.51.77,1.3s-.25,1.36-.77,1.36c-1.67,0-4-.09-6.91-.29-2.73-.19-4.85-.29-6.33-.29s-3.78.1-6.52.29-4.69.29-6.14.29c-.52,0-.77-.46-.77-1.36s.29-1.23.87-1.3q6-.72,8.21-2.25c1.48-1,2.27-3,2.37-5.92l1.69-45.51v-.43c0-2.61-.75-4.44-2.27-5.47s-4.34-1.8-8.45-2.33c-.46,0-.69-.43-.69-1.32s.27-1.33.78-1.33c1.13,0,2.71.1,4.74.29,1.8.19,3.15.29,4.05.29a34.56,34.56,0,0,0,4.06-.29,36.41,36.41,0,0,1,4.16-.29l46.53,52V483.69c0-2.74-.77-4.67-2.33-5.79S442,476,437.8,475.5c-.51-.05-.78-.49-.78-1.3s.27-1.35.78-1.35q2.61,0,7,.29c2.7.19,4.8.29,6.28.29s3.79-.1,6.52-.29,4.69-.29,6.15-.29C464.21,472.85,464.48,473.3,464.48,474.2Z"/><path class="cls-1" d="M905.53,858.34c-1.52-2.07-2.26-4.86-2.26-8.53v-50.5a14.79,14.79,0,0,1,2.24-8.52l.25-.35H886.07c1.76,2.07,2.65,5,2.65,8.87v53a15.24,15.24,0,0,1-2.11,8.41c-.08.14-.18.27-.27.4h23.38A7.88,7.88,0,0,1,905.53,858.34Z"/><path class="cls-1" d="M933.89,845h-.42c-1.62,8.62-7.32,14.78-10.11,16.15H944C941.2,859.81,935.5,853.65,933.89,845Z"/><path class="cls-1" d="M68,856.21c-4.47-2.14-8.32-5.92-11.42-11.24S52,832.66,52,824.06a65.67,65.67,0,0,1,1.28-13.22,36.39,36.39,0,0,1,4.59-11.72,22.38,22.38,0,0,1,8.06-7.31,22.08,22.08,0,0,1,4.67-1.93,50.9,50.9,0,0,0-8.48,1.62c-4.25,1.3-10.44,3.85-14.38,7.44a42.15,42.15,0,0,0-6.11,7.34,34,34,0,0,0-4,8.93,38.72,38.72,0,0,0-1.49,11,39.37,39.37,0,0,0,2.32,13.33,34,34,0,0,0,6.79,11.4,32.45,32.45,0,0,0,11.29,7.89c4.55,2,12.38,3,18.24,3a39.54,39.54,0,0,0,13-1.92,31.87,31.87,0,0,0,9.16-4.75c.84-.65,1.67-1.35,2.49-2.08A29.54,29.54,0,0,1,81,859.34,30.31,30.31,0,0,1,68,856.21Z"/><path class="cls-1" d="M91,806.28h.42c1.61-8.62,7.31-14.78,10.11-16.15H80.89C83.69,791.5,89.38,797.66,91,806.28Z"/><path class="cls-1" d="M808.14,850V790.49H791.2a6.52,6.52,0,0,1,.51.78,16.8,16.8,0,0,1,1.89,8.19v52.91a15.23,15.23,0,0,1-2.13,8.36c-.11.15-.21.31-.32.45h24.42C810.74,859.75,808.14,855.89,808.14,850Z"/><path class="cls-1" d="M835.24,845.08h-.41c-1.62,8.62-7.32,14.78-10.12,16.15h20.65C842.56,859.86,836.86,853.7,835.24,845.08Z"/><path class="cls-1" d="M834.83,806.54h.41c1.62-8.62,7.32-14.77,10.12-16.15H824.71C827.51,791.77,833.21,797.92,834.83,806.54Z"/><path class="cls-1" d="M829.28,835.53V814.88c-1.38,2.8-7.53,8.5-16.15,10.12v.41C821.75,827,827.9,832.73,829.28,835.53Z"/><path class="cls-1" d="M509.91,861.3c-3.23-.53-8.75-1.41-11.42-2.63A32.58,32.58,0,0,1,487,850.16a36,36,0,0,1-6.66-11.78,40.35,40.35,0,0,1-2.18-12.87,39.23,39.23,0,0,1,2.48-13.86,33.38,33.38,0,0,1,7.25-11.5,33,33,0,0,1,11.6-7.69c2.37-1,7.49-1.67,10.22-2.14a17.44,17.44,0,0,0-8.29,6A32.26,32.26,0,0,0,495,810.72a87.06,87.06,0,0,0-1.18,13.82A102.38,102.38,0,0,0,495,840.06a33.72,33.72,0,0,0,6.42,15A17.48,17.48,0,0,0,509.91,861.3Zm7.89-.3a17.24,17.24,0,0,0,10.38-11,70.14,70.14,0,0,0,4-23.12,88.13,88.13,0,0,0-1.58-17.08,31,31,0,0,0-6.82-14.36,17.44,17.44,0,0,0-7.34-5.06c2.72.47,7.82,1.19,10.17,2.15a33,33,0,0,1,18.78,19.27,41.6,41.6,0,0,1,.07,28,34,34,0,0,1-7,11.44A32.15,32.15,0,0,1,526.92,859C524.86,859.86,520.12,860.52,517.8,861Z"/><path class="cls-1" d="M279.14,861.15c-2-3.66-3.59-6.64-4.7-8.86-4.05-7.93-7-13.52-8.91-16.62a23.49,23.49,0,0,0-6.4-7.41,13.47,13.47,0,0,0-4.6-2c4.93-.47,8.85-2.06,11.67-4.74,3.46-3.28,5.21-8,5.21-13.92a19.2,19.2,0,0,0-2.23-9.52,14.88,14.88,0,0,0-6.82-6.2,19.45,19.45,0,0,0-4.21-1.4h5.25a33.43,33.43,0,0,1,12.67,2.22,17.39,17.39,0,0,1,7.86,6,14.72,14.72,0,0,1,2.64,8.72,14.57,14.57,0,0,1-1.65,7c-4.73,8.65-15.19,11.1-18.8,11.86,0,0,9.56,0,16.48,11.74l9,15.33a40.49,40.49,0,0,0,4.54,6.51c.42.47.83.9,1.23,1.28Zm-46.18,0c.11-.14.21-.29.31-.44a15.47,15.47,0,0,0,2.07-8.37V799.43c0-4-.84-7-2.54-9h17.08v61.87c0,3.35.53,5.86,1.63,7.68a8.66,8.66,0,0,0,.78,1.13Z"/><path class="cls-1" d="M627.87,861.15c-2-3.66-3.59-6.64-4.7-8.86-4-7.93-7-13.52-8.91-16.62a23.49,23.49,0,0,0-6.4-7.41,13.47,13.47,0,0,0-4.6-2c4.93-.47,8.85-2.06,11.67-4.74,3.46-3.28,5.21-8,5.21-13.92a19.2,19.2,0,0,0-2.23-9.52,14.88,14.88,0,0,0-6.82-6.2,19.45,19.45,0,0,0-4.21-1.4h5.25a33.39,33.39,0,0,1,12.67,2.22,17.39,17.39,0,0,1,7.86,6,14.72,14.72,0,0,1,2.64,8.72,14.57,14.57,0,0,1-1.65,7c-4.72,8.65-15.19,11.1-18.8,11.86,0,0,9.56,0,16.48,11.74l9,15.33a40.49,40.49,0,0,0,4.54,6.51c.42.47.83.9,1.23,1.28Zm-46.18,0c.11-.14.21-.29.31-.44a15.47,15.47,0,0,0,2.07-8.37V799.43c0-4-.83-7-2.54-9h17.08v61.87c0,3.35.53,5.86,1.63,7.68a8.66,8.66,0,0,0,.78,1.13Z"/><path class="cls-1" d="M710.29,861.56c-5,0-12.16-1.18-16.12-3.51a22.49,22.49,0,0,1-8.76-8.83c-2-3.74-3-10-3-18.51V798.92c0-3.74-.82-6.7-2.43-8.78l-.06-.08h19.47a3.19,3.19,0,0,0-.3.42,15.18,15.18,0,0,0-2.14,8.44V832.6c0,5.33.65,9.47,2,12.67a18.11,18.11,0,0,0,10.42,10.15,20.7,20.7,0,0,0,7.34,1.33,21.11,21.11,0,0,0,7.65-1.42,20.83,20.83,0,0,0,5.5-3.17C725,858.48,718.54,861.56,710.29,861.56Zm22.18-.82V798.92c0-4-.79-6.88-2.43-8.86h19.4l-.24.33a15,15,0,0,0-2.18,8.53v53c0,3.86.79,6.75,2.42,8.81Z"/><path class="cls-1" d="M441.47,853.87,440,851.81V803.54c2.2-7,6.9-11.94,9.36-13.14H428.72c2.46,1.2,7.16,6.11,9.36,13.14V849.1l-41.44-58.47-21.78-.07,9.36,12.84v44.68c-2.19,7-6.89,11.94-9.36,13.14h20.65c-2.46-1.2-7.17-6.11-9.36-13.14V806L419,851.16c2.12,3.16,2.07,8.86-.78,10h31C449.05,861,444.12,857.46,441.47,853.87Z"/><path class="cls-1" d="M171.57,861.11h29.61c-.22-.17-6-3.25-7.81-7.32-4.5-10-15-34-22.59-55.11l-1.52-4.27c-.46-1.32-.91-2.63-1.34-3.91h0l-.75-2.11h0l-1.18-3.29-10.21,22.46.16-.09-18.47,40.24c-3.76,7.22-7.62,12.21-10.12,13.43h20.64c-2.49-1.22-7.23-3.39-8.46-12.51l17-37,15.88,39.5C174.18,856.53,174.18,859,171.57,861.11Z"/><path class="cls-1" d="M572.92,935.21l.11-.15a5.26,5.26,0,0,0,.74-2.91V913.81a4.61,4.61,0,0,0-.91-3.07h6.78a.91.91,0,0,0-.11.16,5.26,5.26,0,0,0-.73,2.91v18.34a7.84,7.84,0,0,0,.18,1.75,2.89,2.89,0,0,0,.7,1.31Z"/><path class="cls-1" d="M214.8,935.21l.11-.15a5.26,5.26,0,0,0,.74-2.91V913.81a4.61,4.61,0,0,0-.91-3.07h6.78a.91.91,0,0,0-.11.16,5.26,5.26,0,0,0-.73,2.91v18.34a7.84,7.84,0,0,0,.18,1.75,2.89,2.89,0,0,0,.7,1.31Z"/><path class="cls-1" d="M752,934.22a4.81,4.81,0,0,1-.78-3V913.79a5.17,5.17,0,0,1,.77-2.95l.09-.12H745.3a4.63,4.63,0,0,1,.92,3.07v18.35a5.21,5.21,0,0,1-.73,2.91l-.09.14h8.09A2.72,2.72,0,0,1,752,934.22Z"/><path class="cls-1" d="M761.85,929.62h-.14a8.6,8.6,0,0,1-3.5,5.59h7.15A8.6,8.6,0,0,1,761.85,929.62Z"/><path class="cls-1" d="M348.94,931.31V910.72h-5.86c.07.09.12.18.18.27a5.87,5.87,0,0,1,.65,2.84v18.31a5.23,5.23,0,0,1-.74,2.89.91.91,0,0,1-.11.16h8.46C349.85,934.7,348.94,933.36,348.94,931.31Z"/><path class="cls-1" d="M358.33,929.62h-.15a8.6,8.6,0,0,1-3.5,5.59h7.15A8.6,8.6,0,0,1,358.33,929.62Z"/><path class="cls-1" d="M358.18,916.28h.15a8.54,8.54,0,0,1,3.5-5.59h-7.15A8.54,8.54,0,0,1,358.18,916.28Z"/><path class="cls-1" d="M356.26,926.31v-7.15a8.53,8.53,0,0,1-5.59,3.5v.15A8.57,8.57,0,0,1,356.26,926.31Z"/><path class="cls-1" d="M620,935.21a20,20,0,0,1-4-.92,11.24,11.24,0,0,1-4-2.94,12.47,12.47,0,0,1-2.31-4.08,14,14,0,0,1-.75-4.45,13.6,13.6,0,0,1,.86-4.8,11.31,11.31,0,0,1,2.51-4,11.44,11.44,0,0,1,4-2.66,21.53,21.53,0,0,1,3.54-.74A6,6,0,0,0,617,912.7a11.31,11.31,0,0,0-2.22,5,30.17,30.17,0,0,0-.41,4.78,35.36,35.36,0,0,0,.41,5.37,11.68,11.68,0,0,0,2.22,5.2A6.1,6.1,0,0,0,620,935.21Zm2.74-.11a6,6,0,0,0,3.59-3.82,24.16,24.16,0,0,0,1.37-8,30.75,30.75,0,0,0-.55-5.91,10.75,10.75,0,0,0-2.36-5,6,6,0,0,0-2.54-1.75,22.6,22.6,0,0,1,3.52.74,11.4,11.4,0,0,1,6.5,6.67,14.39,14.39,0,0,1,0,9.69,11.65,11.65,0,0,1-2.41,4,11.11,11.11,0,0,1-4,2.71A23.72,23.72,0,0,1,622.71,935.1Z"/><path class="cls-1" d="M402.07,935.21c-.69-1.27-1.24-2.31-1.63-3.07-1.4-2.75-2.43-4.68-3.08-5.76a8.1,8.1,0,0,0-2.22-2.56,4.57,4.57,0,0,0-1.59-.69,6.64,6.64,0,0,0,4-1.65,6.33,6.33,0,0,0,1.81-4.82,6.56,6.56,0,0,0-.78-3.29,5.1,5.1,0,0,0-2.36-2.15,6.85,6.85,0,0,0-1.45-.48h1.81a11.56,11.56,0,0,1,4.39.77,6,6,0,0,1,2.72,2.06,5.15,5.15,0,0,1,.91,3,5.05,5.05,0,0,1-.57,2.44c-1.63,3-5.26,3.84-6.5,4.11,0,0,3.3,0,5.7,4.06l3.12,5.31a14.72,14.72,0,0,0,1.57,2.25l.43.45Zm-16,0,.1-.16a5.3,5.3,0,0,0,.72-2.9V913.84a4.61,4.61,0,0,0-.88-3.1h5.91v21.41a5.13,5.13,0,0,0,.57,2.66,2.8,2.8,0,0,0,.27.4Z"/><path class="cls-1" d="M310.17,932.15V910.74h-5v21.41a5.26,5.26,0,0,1-.74,2.91l-.11.15h6.74a2.93,2.93,0,0,1-.61-1.05A6.61,6.61,0,0,1,310.17,932.15Z"/><path class="cls-1" d="M312.54,910.74a8.54,8.54,0,0,1,3.5,5.58h.14a8.58,8.58,0,0,1,3.5-5.58Z"/><path class="cls-1" d="M299.18,916.32h.14a8.54,8.54,0,0,1,3.5-5.58h-7.15A8.55,8.55,0,0,1,299.18,916.32Z"/><path class="cls-1" d="M534,932.15V910.74h-5v21.41a5.26,5.26,0,0,1-.74,2.91l-.1.15h6.73a2.9,2.9,0,0,1-.6-1.05A6.61,6.61,0,0,1,534,932.15Z"/><path class="cls-1" d="M536.36,910.74a8.54,8.54,0,0,1,3.5,5.58H540a8.54,8.54,0,0,1,3.5-5.58Z"/><path class="cls-1" d="M523,916.32h.14a8.55,8.55,0,0,1,3.51-5.58H519.5A8.54,8.54,0,0,1,523,916.32Z"/><path class="cls-1" d="M452.12,932.66l-.5-.71V915.26a8.19,8.19,0,0,1,3.23-4.54h-7.13a8.19,8.19,0,0,1,3.23,4.54V931L436.63,910.8l-7.54,0,3.24,4.44v15.45a8.22,8.22,0,0,1-3.24,4.55h7.14a8.26,8.26,0,0,1-3.23-4.55V916.13l11.36,15.6c.74,1.09.72,3.06-.27,3.46h10.73A15,15,0,0,1,452.12,932.66Z"/><path class="cls-1" d="M676,932.66l-.51-.71V915.26a8.19,8.19,0,0,1,3.24-4.54h-7.14a8.19,8.19,0,0,1,3.24,4.54V931L660.45,910.8l-7.53,0,3.24,4.44v15.45a8.27,8.27,0,0,1-3.24,4.55h7.14a8.27,8.27,0,0,1-3.24-4.55V916.13l11.37,15.6c.73,1.09.71,3.06-.27,3.46h10.73A14.66,14.66,0,0,1,676,932.66Z"/><path class="cls-1" d="M273.06,932.66l-.5-.71V915.26a8.19,8.19,0,0,1,3.23-4.54h-7.13a8.19,8.19,0,0,1,3.23,4.54V931L257.57,910.8l-7.54,0,3.24,4.44v15.45a8.22,8.22,0,0,1-3.24,4.55h7.14a8.26,8.26,0,0,1-3.23-4.55V916.13l11.36,15.6c.74,1.09.72,3.06-.27,3.46h10.73A15,15,0,0,1,273.06,932.66Z"/><path class="cls-1" d="M489.1,935.2h9.52a6.67,6.67,0,0,1-2.51-2.35c-1.44-3.22-4.81-11-7.26-17.73l-.49-1.38c-.15-.42-.3-.84-.44-1.26h0l-.24-.67h0l-.38-1.06L484,918l.05,0-5.94,12.94c-1.21,2.33-2.45,3.93-3.26,4.33h6.65c-.81-.4-2.33-1.09-2.73-4l5.47-11.91L489.35,932C489.94,933.73,489.94,934.53,489.1,935.2Z"/><path class="cls-1" d="M712.92,935.2h9.53a6.59,6.59,0,0,1-2.51-2.35c-1.45-3.22-4.81-11-7.27-17.73l-.49-1.38c-.15-.42-.29-.84-.43-1.26h0l-.24-.67h0l-.38-1.06L707.83,918l0,0-6,12.94c-1.2,2.33-2.45,3.93-3.25,4.33h6.64c-.8-.4-2.33-1.09-2.72-4l5.47-11.91L713.18,932C713.76,933.73,713.76,934.53,712.92,935.2Z"/></g></g></svg>